# xmcd
#
# Track frame offsets:
#	150
#	21307
#	40282
#	51562
#	68520
#	82842
#	96417
#	112332
#	132625
#	144420
#	155845
#	169877
#	181512
#	191837
#	203457
#	213837
#	222655
#	233510
#	241442
#	251912
#	260432
#	269145
#	278742
#	292535
#
# Disc length: 4176 seconds
#
# Revision: 1
# Processed by: cddbd v1.5.1PL0 Copyright (c) Steve Scherf et al.
# Submitted via: CDex 1.50Beta5
#
DISCID=72104e18
DTITLE=さまざまなアーティスト - MAHARAJA NIGHT NON-STOP DISCO MIX VOL.12
DYEAR=1900
DGENRE=
TTITLE0=DJ ZORRO/BAILA BAILA
TTITLE1=CHIMO BAYO/LATIA ENRIQUETA
TTITLE2=featuring TANJA TANGA/EAZY BEE
TTITLE3=94 SALE/COSMIC GENERATION
TTITLE4=J. K. B. S./I BELIEVE IN THE POWER
TTITLE5=ROTATION/POMP IT UP
TTITLE6=METAL MINDED MANIACS/NOISE MAKER
TTITLE7=RAVEMAN/FUCKIN' SERIOUS
TTITLE8=WAIN L/FEEL ME
TTITLE9=NORMA SHEFFIELD/SWEET HEAVEN
TTITLE10=ANIKA/YOU'RE MY LIFE
TTITLE11=CASANOVA/IN THE NAME OF LOVE
TTITLE12=LOVE and PRIDE/HOT HOT HOT
TTITLE13=TENSION/BABY COME BACK
TTITLE14=ANNALISE/NEW LOVE
TTITLE15=FRANK TORPEDO/SEX AND DANCE
TTITLE16=VIRGINELLE/WHY NOT
TTITLE17=MORENA/STOP ME
TTITLE18=DERRECK SIMONS/HEY PEOPLE
TTITLE19=SANDY BEE/NEW DAY
TTITLE20=LOLITA/TIME TO DANCE
TTITLE21=MACHO GANG/NEVER ASK ME WHY
TTITLE22=KING and QUEEN/PARA PARA
TTITLE23=THE FEDERATION/LIFE SO FREE
EXTD=
EXTT0=
EXTT1=
EXTT2=
EXTT3=
EXTT4=
EXTT5=
EXTT6=
EXTT7=
EXTT8=
EXTT9=
EXTT10=
EXTT11=
EXTT12=
EXTT13=
EXTT14=
EXTT15=
EXTT16=
EXTT17=
EXTT18=
EXTT19=
EXTT20=
EXTT21=
EXTT22=
EXTT23=
PLAYORDER=
